<svg xmlns="http://www.w3.org/2000/svg" viewBox="0 0 37 37" shape-rendering="crispEdges"><rect width="37" height="37" fill="#f2f0e5"/><path fill="#171813" d="M4 4h7v1h-7z M12 4h4v1h-4z M17 4h6v1h-6z M26 4h7v1h-7z M4 5h1v1h-1z M10 5h1v1h-1z M13 5h2v1h-2z M16 5h2v1h-2z M20 5h1v1h-1z M22 5h3v1h-3z M26 5h1v1h-1z M32 5h1v1h-1z M4 6h1v1h-1z M6 6h3v1h-3z M10 6h1v1h-1z M14 6h1v1h-1z M19 6h3v1h-3z M24 6h1v1h-1z M26 6h1v1h-1z M28 6h3v1h-3z M32 6h1v1h-1z M4 7h1v1h-1z M6 7h3v1h-3z M10 7h1v1h-1z M12 7h2v1h-2z M17 7h1v1h-1z M19 7h2v1h-2z M22 7h1v1h-1z M24 7h1v1h-1z M26 7h1v1h-1z M28 7h3v1h-3z M32 7h1v1h-1z M4 8h1v1h-1z M6 8h3v1h-3z M10 8h1v1h-1z M12 8h4v1h-4z M18 8h3v1h-3z M26 8h1v1h-1z M28 8h3v1h-3z M32 8h1v1h-1z M4 9h1v1h-1z M10 9h1v1h-1z M12 9h2v1h-2z M16 9h2v1h-2z M20 9h1v1h-1z M23 9h1v1h-1z M26 9h1v1h-1z M32 9h1v1h-1z M4 10h7v1h-7z M12 10h1v1h-1z M14 10h1v1h-1z M16 10h1v1h-1z M18 10h1v1h-1z M20 10h1v1h-1z M22 10h1v1h-1z M24 10h1v1h-1z M26 10h7v1h-7z M12 11h2v1h-2z M18 11h2v1h-2z M21 11h2v1h-2z M4 12h1v1h-1z M8 12h1v1h-1z M10 12h3v1h-3z M14 12h3v1h-3z M21 12h1v1h-1z M24 12h6v1h-6z M32 12h1v1h-1z M5 13h1v1h-1z M7 13h2v1h-2z M12 13h1v1h-1z M15 13h1v1h-1z M17 13h4v1h-4z M22 13h1v1h-1z M25 13h8v1h-8z M4 14h4v1h-4z M10 14h1v1h-1z M13 14h1v1h-1z M19 14h2v1h-2z M24 14h2v1h-2z M27 14h2v1h-2z M32 14h1v1h-1z M4 15h1v1h-1z M7 15h1v1h-1z M11 15h1v1h-1z M14 15h3v1h-3z M18 15h2v1h-2z M21 15h1v1h-1z M23 15h2v1h-2z M26 15h1v1h-1z M28 15h2v1h-2z M31 15h2v1h-2z M4 16h1v1h-1z M8 16h1v1h-1z M10 16h1v1h-1z M12 16h2v1h-2z M21 16h4v1h-4z M31 16h1v1h-1z M4 17h1v1h-1z M6 17h1v1h-1z M8 17h1v1h-1z M13 17h1v1h-1z M15 17h1v1h-1z M18 17h5v1h-5z M25 17h8v1h-8z M6 18h1v1h-1z M9 18h2v1h-2z M12 18h1v1h-1z M16 18h1v1h-1z M19 18h1v1h-1z M22 18h1v1h-1z M25 18h6v1h-6z M32 18h1v1h-1z M4 19h1v1h-1z M7 19h1v1h-1z M9 19h1v1h-1z M12 19h2v1h-2z M16 19h1v1h-1z M18 19h1v1h-1z M21 19h1v1h-1z M23 19h2v1h-2z M28 19h1v1h-1z M31 19h2v1h-2z M4 20h3v1h-3z M10 20h4v1h-4z M16 20h1v1h-1z M19 20h1v1h-1z M21 20h1v1h-1z M24 20h1v1h-1z M31 20h1v1h-1z M4 21h1v1h-1z M8 21h1v1h-1z M11 21h4v1h-4z M16 21h2v1h-2z M19 21h1v1h-1z M21 21h2v1h-2z M24 21h6v1h-6z M31 21h2v1h-2z M6 22h1v1h-1z M10 22h2v1h-2z M14 22h4v1h-4z M19 22h1v1h-1z M21 22h1v1h-1z M25 22h2v1h-2z M30 22h1v1h-1z M32 22h1v1h-1z M7 23h1v1h-1z M11 23h1v1h-1z M13 23h1v1h-1z M16 23h1v1h-1z M21 23h2v1h-2z M24 23h2v1h-2z M31 23h2v1h-2z M4 24h2v1h-2z M7 24h2v1h-2z M10 24h2v1h-2z M13 24h4v1h-4z M18 24h1v1h-1z M21 24h1v1h-1z M23 24h7v1h-7z M32 24h1v1h-1z M12 25h2v1h-2z M18 25h1v1h-1z M20 25h3v1h-3z M24 25h1v1h-1z M28 25h1v1h-1z M32 25h1v1h-1z M4 26h7v1h-7z M12 26h4v1h-4z M17 26h4v1h-4z M22 26h3v1h-3z M26 26h1v1h-1z M28 26h3v1h-3z M32 26h1v1h-1z M4 27h1v1h-1z M10 27h1v1h-1z M13 27h1v1h-1z M15 27h2v1h-2z M18 27h1v1h-1z M20 27h3v1h-3z M24 27h1v1h-1z M28 27h1v1h-1z M31 27h1v1h-1z M4 28h1v1h-1z M6 28h3v1h-3z M10 28h1v1h-1z M12 28h1v1h-1z M14 28h5v1h-5z M20 28h10v1h-10z M32 28h1v1h-1z M4 29h1v1h-1z M6 29h3v1h-3z M10 29h1v1h-1z M13 29h2v1h-2z M16 29h1v1h-1z M18 29h1v1h-1z M20 29h3v1h-3z M24 29h1v1h-1z M32 29h1v1h-1z M4 30h1v1h-1z M6 30h3v1h-3z M10 30h1v1h-1z M13 30h2v1h-2z M16 30h2v1h-2z M19 30h1v1h-1z M22 30h2v1h-2z M29 30h4v1h-4z M4 31h1v1h-1z M10 31h1v1h-1z M13 31h4v1h-4z M19 31h7v1h-7z M28 31h2v1h-2z M31 31h2v1h-2z M4 32h7v1h-7z M12 32h1v1h-1z M14 32h3v1h-3z M23 32h3v1h-3z M29 32h1v1h-1z M31 32h1v1h-1z"/></svg>